<?xml version="1.0" encoding="UTF-8" standalone="no"?>
<svg
   width="60"
   height="60"
   viewBox="0 0 60 60"
   fill="none"
   version="1.1"
   id="svg16"
   sodipodi:docname="logo.svg"
   inkscape:version="1.2.2 (732a01da63, 2022-12-09)"
   xmlns:inkscape="http://www.inkscape.org/namespaces/inkscape"
   xmlns:sodipodi="http://sodipodi.sourceforge.net/DTD/sodipodi-0.dtd"
   xmlns="http://www.w3.org/2000/svg"
   xmlns:svg="http://www.w3.org/2000/svg">
  <defs
     id="defs20" />
  <sodipodi:namedview
     id="namedview18"
     pagecolor="#ffffff"
     bordercolor="#000000"
     borderopacity="0.25"
     inkscape:showpageshadow="2"
     inkscape:pageopacity="0.0"
     inkscape:pagecheckerboard="0"
     inkscape:deskcolor="#d1d1d1"
     showgrid="false"
     inkscape:zoom="13.95"
     inkscape:cx="30"
     inkscape:cy="24.301075"
     inkscape:window-width="1920"
     inkscape:window-height="1017"
     inkscape:window-x="-8"
     inkscape:window-y="-8"
     inkscape:window-maximized="1"
     inkscape:current-layer="svg16" />
  <path
     id="path6010"
     style="fill:#000000;fill-opacity:1"
     d="M 24.8825,35.5078 17.4054,17.6227 C 16.8746,16.3915 16.3439,15.5382 15.8131,15.063 15.2823,14.5878 14.6708,14.307 13.9784,14.2206 v -0.648 c 0.0923,0 0.3231,-0.0108 0.6924,-0.0324 0.3461,-0.0216 0.6,-0.0324 0.7615,-0.0324 0.8077,0 1.6385,0.0864 2.4924,0.2592 0.8538,0.1512 1.6615,0.5184 2.4231,1.1016 0.7616,0.5832 1.4077,1.5013 1.9385,2.7541 l 4.6732,11.1782 3.1154,-8.2946 -1.2115,-2.8836 C 28.3326,16.3915 27.7556,15.5382 27.1326,15.063 26.5325,14.5878 25.8864,14.307 25.1941,14.2206 v -0.648 c 0.0923,0 0.3,-0.0108 0.623,-0.0324 0.3231,-0.0216 0.5654,-0.0324 0.727,-0.0324 0.8077,0 1.6385,0.0864 2.4923,0.2592 0.8539,0.1728 1.6616,0.5508 2.4232,1.134 0.7615,0.5616 1.4077,1.4689 1.9385,2.7217 l 4.9501,11.7938 5.9193,-15.5847 h 1.6616 l -8.204,21.676 h -1.3846 l -5.3309,-12.701 -4.7424,12.701 z m 2.2565,24.4331 c -0.0187,-0.0303 -0.3709,-0.063 -0.7826,-0.0726 -0.4117,-0.0099 -1.1407,-0.0833 -1.6197,-0.1632 -4.1982,-0.7006 -8.4414,-2.2255 -11.2686,-4.0495 -0.5224,-0.3371 -0.6418,-0.4673 -0.5559,-0.6063 0.0624,-0.1011 0.27,-0.0497 1.4799,0.3662 0.5789,0.199 1.4773,0.454 1.9963,0.5667 0.8781,0.1905 1.0573,0.2047 2.5771,0.2048 2.2802,0 3.0612,-0.1293 5.5451,-0.918 4.731,-1.5024 5.9148,-1.509 10.6145,-0.0599 2.6992,0.8324 3.7609,1.0163 5.8621,1.0156 1.5289,-4e-4 2.9657,-0.2702 4.6928,-0.8815 0.4591,-0.1624 0.9208,-0.3115 1.0258,-0.3312 0.2054,-0.0385 0.3051,0.0484 0.2427,0.2112 -0.0954,0.2488 -2.5092,1.5986 -3.9907,2.2316 -2.8892,1.2343 -7.3697,2.3774 -9.4378,2.4077 -0.4198,0.0062 -0.7817,0.0408 -0.804,0.0772 -0.0494,0.0796 -5.5279,0.0808 -5.577,0.0012 z M 16.3158,54.0733 C 12.5545,53.5173 9.2937,51.8135 6.51365,48.9516 4.99927,47.3927 3.88067,45.7769 2.75286,43.5188 1.27717,40.5645 0.225728,36.7539 0.0454776,33.7061 -0.0160819,32.666 -0.0147752,26.8854 0.0471473,25.897 0.173388,23.8829 0.908616,20.9255 1.92028,18.3621 2.30844,17.3785 3.33782,15.2343 3.83051,14.3832 3.98078,14.1235 4.14136,13.8457 4.18738,13.7658 5.17952,12.0402 7.08576,9.62045 8.76993,7.94873 10.2965,6.43349 11.7593,5.24993 13.5208,4.1048 c 0.539,-0.35036 1.0617,-0.69279 1.1615,-0.761 0.369,-0.25207 2.6038,-1.38529 3.4205,-1.73448 1.81,-0.774007 3.8785,-1.452485 4.4949,-1.474278 C 22.799,0.12785 22.9807,0.0945802 23.0014,0.0610195 23.0221,0.0274588 23.2099,0 23.4186,0 c 0.3211,0 0.3811,0.0212842 0.39,0.138238 C 23.817,0.251124 23.703,0.312434 23.1888,0.471666 21.0356,1.1383 18.5634,2.31692 16.1793,3.81372 14.388,4.93822 12.2883,6.69711 10.5518,8.52755 6.10342,13.217 3.51495,18.857 2.72731,25.5772 c -0.15354,1.3101 -0.17379,4.787 -0.03492,6.0221 0.85181,7.5812 4.12455,13.5901 8.97741,16.483 1.8115,1.0799 3.8015,1.6511 6.0252,1.7296 1.8023,0.0634 2.9549,-0.1735 6.2148,-1.2774 3.0653,-1.0379 3.8954,-1.2574 5.238,-1.3847 0.8961,-0.085 1.957,-0.008 2.9968,0.2174 0.6197,0.1344 3.2014,0.9406 4.6062,1.4385 2.1616,0.7662 3.7634,1.0641 5.4082,1.0062 2.6953,-0.095 5.0542,-0.9168 7.1987,-2.5079 4.2056,-3.1203 7.0452,-8.8365 7.8018,-15.7045 0.1232,-1.1182 0.1243,-4.5151 0.0018,-5.6661 C 56.6211,20.8555 55.1252,16.5486 52.5317,12.6036 49.9864,8.73196 46.3796,5.32707 42.3768,3.01741 40.7371,2.07132 38.2522,0.964181 36.6601,0.470577 36.1563,0.314396 36.0249,0.245386 36.0249,0.136858 c 0,-0.1154285 0.0559,-0.136712715 0.3586,-0.136712715 0.1973,0 0.3753,0.027022915 0.3958,0.060075115 0.0203,0.0329796 0.2225,0.0675576 0.4492,0.0767106 1.017,0.041188 4.2592,1.248359 6.4671,2.407949 7.0553,3.70555 12.2124,9.75992 14.8123,17.39002 0.6771,1.9872 1.2356,4.5507 1.2594,5.7805 0.0074,0.381 0.05,0.7371 0.0952,0.7949 0.0641,0.0819 0.0606,0.0919 -0.016,0.0457 -0.0795,-0.0478 -0.0824,-0.0297 -0.0155,0.0954 0.1008,0.1883 0.0621,5.5252 -0.053,7.3089 -0.0861,1.3378 -0.3203,2.6747 -0.7758,4.4311 -1.5236,5.875 -4.6821,10.5544 -8.9668,13.2852 -1.5264,0.9728 -3.773,1.883 -5.5231,2.2377 -0.7323,0.1484 -1.0361,0.1679 -2.6074,0.1679 -2.3697,0 -3.5195,-0.1957 -6.7512,-1.1496 -3.3974,-1.0028 -3.8404,-1.0956 -5.2268,-1.0956 -1.3865,0 -1.8306,0.0931 -5.2267,1.0957 -3.1172,0.9202 -4.2081,1.1139 -6.4609,1.1475 -0.9382,0.0139 -1.8039,0.0109 -1.9235,-0.0069 z m 0.254,-6.7072 C 15.117,47.2073 13.9404,46.8565 12.5409,46.1651 10.6479,45.2298 9.05348,43.7643 7.67958,41.6967 7.02986,40.7189 6.45913,39.6746 6.50682,39.5504 c 0.07841,-0.2045 0.35419,-0.1038 0.76928,0.2807 0.90728,0.8404 2.9869,2.3741 3.2195,2.3741 0.0406,0 0.1254,0.0465 0.1884,0.103 0.155,0.1392 1.3673,0.6677 2.0384,0.8885 1.3461,0.443 3.0837,0.6469 4.5371,0.5323 1.7057,-0.1343 2.9206,-0.4219 4.8275,-1.1425 3.005,-1.1356 4.6093,-1.5317 6.8467,-1.6904 1.6655,-0.1182 3.6191,0.0703 5.3853,0.5198 0.8537,0.2173 1.8013,0.5281 3.2304,1.0595 1.548,0.5758 2.4094,0.835 3.4195,1.0292 3.3865,0.6509 6.4996,0.0517 9.2844,-1.7872 0.8438,-0.5572 2.058,-1.5162 2.5011,-1.9752 0.296,-0.3068 0.5892,-0.3905 0.6662,-0.19 0.0746,0.1947 -1.0097,2.0254 -1.8512,3.1251 -0.4631,0.6055 -1.4719,1.6451 -2.0783,2.142 -1.4657,1.2009 -3.3503,2.0696 -5.2994,2.4425 -0.9012,0.1725 -3.0629,0.1741 -4.0652,0.003 -1.1116,-0.1896 -2.2757,-0.5211 -3.5934,-1.0229 -2.9246,-1.1138 -4.4004,-1.437 -6.5697,-1.4391 -0.9331,-8e-4 -1.4519,0.0366 -2.1271,0.1531 -1.6104,0.2782 -2.2468,0.4679 -5.001,1.4919 -1.0035,0.3731 -1.9946,0.6388 -2.9998,0.804 -0.8327,0.1371 -2.5187,0.1961 -3.2657,0.1143 z" />
</svg>
